<mxfile host="app.diagrams.net" modified="2020-11-27T11:44:47.810Z" agent="5.0 (X11; Linux x86_64) AppleWebKit/537.36 (KHTML, like Gecko) Chrome/86.0.4240.75 Safari/537.36" etag="HjD4GKkoN-7ajRBokZSk" version="13.10.4" type="github" pages="2">
  <diagram name="OMC" id="aaaa8250-4180-3840-79b5-4cada1eebb92">
    <mxGraphModel dx="2845" dy="1073" grid="1" gridSize="10" guides="1" tooltips="1" connect="1" arrows="1" fold="1" page="1" pageScale="1" pageWidth="850" pageHeight="1100" background="#ffffff" math="0" shadow="0">
      <root>
        <mxCell id="0" />
        <mxCell id="1" parent="0" />
        <mxCell id="5euNQ92FFmXa8CsyGcmS-24" style="edgeStyle=orthogonalEdgeStyle;rounded=0;orthogonalLoop=1;jettySize=auto;html=1;entryX=0.5;entryY=0;entryDx=0;entryDy=0;fontSize=12;" parent="1" source="5euNQ92FFmXa8CsyGcmS-8" target="5euNQ92FFmXa8CsyGcmS-9" edge="1">
          <mxGeometry relative="1" as="geometry" />
        </mxCell>
        <mxCell id="5euNQ92FFmXa8CsyGcmS-8" value="构建镜像" style="rounded=1;whiteSpace=wrap;html=1;fontSize=12;" parent="1" vertex="1">
          <mxGeometry x="640" width="120" height="40" as="geometry" />
        </mxCell>
        <mxCell id="5euNQ92FFmXa8CsyGcmS-25" value="是" style="edgeStyle=orthogonalEdgeStyle;rounded=0;orthogonalLoop=1;jettySize=auto;html=1;exitX=0.5;exitY=1;exitDx=0;exitDy=0;fontSize=12;" parent="1" source="5euNQ92FFmXa8CsyGcmS-9" target="5euNQ92FFmXa8CsyGcmS-11" edge="1">
          <mxGeometry relative="1" as="geometry" />
        </mxCell>
        <mxCell id="5euNQ92FFmXa8CsyGcmS-26" style="edgeStyle=orthogonalEdgeStyle;rounded=0;orthogonalLoop=1;jettySize=auto;html=1;exitX=0;exitY=0.5;exitDx=0;exitDy=0;fontSize=12;" parent="1" source="5euNQ92FFmXa8CsyGcmS-9" target="5euNQ92FFmXa8CsyGcmS-15" edge="1">
          <mxGeometry relative="1" as="geometry" />
        </mxCell>
        <mxCell id="5euNQ92FFmXa8CsyGcmS-38" value="否" style="edgeLabel;html=1;align=center;verticalAlign=middle;resizable=0;points=[];fontSize=12;" parent="5euNQ92FFmXa8CsyGcmS-26" vertex="1" connectable="0">
          <mxGeometry x="-0.4172" relative="1" as="geometry">
            <mxPoint x="-5.83" as="offset" />
          </mxGeometry>
        </mxCell>
        <mxCell id="acZssroOzcoyhFP3LRE6-4" style="edgeStyle=orthogonalEdgeStyle;rounded=0;orthogonalLoop=1;jettySize=auto;html=1;entryX=0.5;entryY=0;entryDx=0;entryDy=0;fontSize=12;exitX=0.5;exitY=1;exitDx=0;exitDy=0;" edge="1" parent="1" source="5euNQ92FFmXa8CsyGcmS-9" target="acZssroOzcoyhFP3LRE6-3">
          <mxGeometry relative="1" as="geometry" />
        </mxCell>
        <mxCell id="acZssroOzcoyhFP3LRE6-21" value="是" style="edgeLabel;html=1;align=center;verticalAlign=middle;resizable=0;points=[];fontSize=12;" vertex="1" connectable="0" parent="acZssroOzcoyhFP3LRE6-4">
          <mxGeometry x="0.1375" y="4" relative="1" as="geometry">
            <mxPoint y="4" as="offset" />
          </mxGeometry>
        </mxCell>
        <mxCell id="5euNQ92FFmXa8CsyGcmS-9" value="硬件变化？" style="rhombus;whiteSpace=wrap;html=1;fontSize=12;" parent="1" vertex="1">
          <mxGeometry x="640" y="80" width="120" height="40" as="geometry" />
        </mxCell>
        <mxCell id="5euNQ92FFmXa8CsyGcmS-29" style="edgeStyle=orthogonalEdgeStyle;rounded=0;orthogonalLoop=1;jettySize=auto;html=1;fontSize=12;" parent="1" source="5euNQ92FFmXa8CsyGcmS-10" target="5euNQ92FFmXa8CsyGcmS-16" edge="1">
          <mxGeometry relative="1" as="geometry">
            <mxPoint x="155" y="539.9999999999999" as="targetPoint" />
          </mxGeometry>
        </mxCell>
        <mxCell id="5euNQ92FFmXa8CsyGcmS-10" value="基于最新镜像&lt;br&gt;(OMC Disk 2)" style="rounded=0;whiteSpace=wrap;html=1;fontSize=12;" parent="1" vertex="1">
          <mxGeometry x="80" y="320" width="120" height="40" as="geometry" />
        </mxCell>
        <mxCell id="5euNQ92FFmXa8CsyGcmS-31" style="edgeStyle=orthogonalEdgeStyle;rounded=0;orthogonalLoop=1;jettySize=auto;html=1;exitX=0.5;exitY=1;exitDx=0;exitDy=0;fontSize=12;" parent="1" source="5euNQ92FFmXa8CsyGcmS-11" target="5euNQ92FFmXa8CsyGcmS-17" edge="1">
          <mxGeometry relative="1" as="geometry" />
        </mxCell>
        <mxCell id="acZssroOzcoyhFP3LRE6-2" style="edgeStyle=orthogonalEdgeStyle;rounded=0;orthogonalLoop=1;jettySize=auto;html=1;entryX=0.5;entryY=0;entryDx=0;entryDy=0;fontSize=12;exitX=0.5;exitY=1;exitDx=0;exitDy=0;" edge="1" parent="1" source="acZssroOzcoyhFP3LRE6-3" target="acZssroOzcoyhFP3LRE6-38">
          <mxGeometry relative="1" as="geometry" />
        </mxCell>
        <mxCell id="5euNQ92FFmXa8CsyGcmS-11" value="基于基础镜像&lt;br&gt;(OMC Disk 1)" style="rounded=0;whiteSpace=wrap;html=1;fontSize=12;" parent="1" vertex="1">
          <mxGeometry x="560" y="158.7" width="120" height="40" as="geometry" />
        </mxCell>
        <mxCell id="5euNQ92FFmXa8CsyGcmS-46" style="edgeStyle=orthogonalEdgeStyle;rounded=0;orthogonalLoop=1;jettySize=auto;html=1;exitX=0.5;exitY=1;exitDx=0;exitDy=0;fontSize=12;" parent="1" source="5euNQ92FFmXa8CsyGcmS-12" target="5euNQ92FFmXa8CsyGcmS-44" edge="1">
          <mxGeometry relative="1" as="geometry">
            <Array as="points">
              <mxPoint x="460" y="600" />
              <mxPoint x="220" y="600" />
            </Array>
          </mxGeometry>
        </mxCell>
        <mxCell id="5euNQ92FFmXa8CsyGcmS-30" style="edgeStyle=orthogonalEdgeStyle;rounded=0;orthogonalLoop=1;jettySize=auto;html=1;exitX=0.5;exitY=1;exitDx=0;exitDy=0;fontSize=12;" parent="1" source="5euNQ92FFmXa8CsyGcmS-14" target="5euNQ92FFmXa8CsyGcmS-12" edge="1">
          <mxGeometry relative="1" as="geometry" />
        </mxCell>
        <mxCell id="5euNQ92FFmXa8CsyGcmS-14" value="基于最新开发镜像(OMC Disk 3)" style="rounded=0;whiteSpace=wrap;html=1;fontSize=12;" parent="1" vertex="1">
          <mxGeometry x="400" y="320" width="120" height="40" as="geometry" />
        </mxCell>
        <mxCell id="5euNQ92FFmXa8CsyGcmS-28" style="edgeStyle=orthogonalEdgeStyle;rounded=0;orthogonalLoop=1;jettySize=auto;html=1;exitX=1;exitY=0.5;exitDx=0;exitDy=0;fontSize=12;" parent="1" source="5euNQ92FFmXa8CsyGcmS-15" target="5euNQ92FFmXa8CsyGcmS-14" edge="1">
          <mxGeometry relative="1" as="geometry" />
        </mxCell>
        <mxCell id="5euNQ92FFmXa8CsyGcmS-40" value="是" style="edgeLabel;html=1;align=center;verticalAlign=middle;resizable=0;points=[];fontSize=12;" parent="5euNQ92FFmXa8CsyGcmS-28" vertex="1" connectable="0">
          <mxGeometry x="0.6694" y="-3" relative="1" as="geometry">
            <mxPoint x="3" y="14.6" as="offset" />
          </mxGeometry>
        </mxCell>
        <mxCell id="5euNQ92FFmXa8CsyGcmS-41" value="否" style="edgeStyle=orthogonalEdgeStyle;rounded=0;orthogonalLoop=1;jettySize=auto;html=1;fontSize=12;exitX=0;exitY=0.5;exitDx=0;exitDy=0;" parent="1" source="5euNQ92FFmXa8CsyGcmS-15" target="5euNQ92FFmXa8CsyGcmS-10" edge="1">
          <mxGeometry x="0.25" relative="1" as="geometry">
            <mxPoint as="offset" />
          </mxGeometry>
        </mxCell>
        <mxCell id="5euNQ92FFmXa8CsyGcmS-15" value="开发镜像？" style="rhombus;whiteSpace=wrap;html=1;fontSize=12;" parent="1" vertex="1">
          <mxGeometry x="160" y="240" width="120" height="40" as="geometry" />
        </mxCell>
        <mxCell id="acZssroOzcoyhFP3LRE6-34" style="edgeStyle=orthogonalEdgeStyle;rounded=0;orthogonalLoop=1;jettySize=auto;html=1;entryX=0.5;entryY=0;entryDx=0;entryDy=0;fontSize=12;" edge="1" parent="1" source="5euNQ92FFmXa8CsyGcmS-16" target="5euNQ92FFmXa8CsyGcmS-44">
          <mxGeometry relative="1" as="geometry">
            <Array as="points">
              <mxPoint x="120" y="600" />
              <mxPoint x="220" y="600" />
            </Array>
          </mxGeometry>
        </mxCell>
        <mxCell id="5euNQ92FFmXa8CsyGcmS-32" style="edgeStyle=orthogonalEdgeStyle;rounded=0;orthogonalLoop=1;jettySize=auto;html=1;exitX=0.5;exitY=1;exitDx=0;exitDy=0;fontSize=12;" parent="1" source="5euNQ92FFmXa8CsyGcmS-17" target="5euNQ92FFmXa8CsyGcmS-23" edge="1">
          <mxGeometry relative="1" as="geometry" />
        </mxCell>
        <mxCell id="5euNQ92FFmXa8CsyGcmS-17" value="&lt;p style=&quot;font-size: 12px&quot;&gt;更新基础软件&lt;/p&gt;" style="rounded=0;whiteSpace=wrap;html=1;fontSize=12;" parent="1" vertex="1">
          <mxGeometry x="560" y="240" width="120" height="40" as="geometry" />
        </mxCell>
        <mxCell id="5euNQ92FFmXa8CsyGcmS-35" value="否" style="edgeStyle=orthogonalEdgeStyle;rounded=0;orthogonalLoop=1;jettySize=auto;html=1;exitX=0.5;exitY=1;exitDx=0;exitDy=0;entryX=1;entryY=0.5;entryDx=0;entryDy=0;fontSize=12;" parent="1" source="5euNQ92FFmXa8CsyGcmS-19" target="5euNQ92FFmXa8CsyGcmS-16" edge="1">
          <mxGeometry x="0.6901" relative="1" as="geometry">
            <mxPoint x="255" y="680" as="targetPoint" />
            <Array as="points">
              <mxPoint x="620" y="560" />
              <mxPoint x="220" y="560" />
              <mxPoint x="220" y="420" />
            </Array>
            <mxPoint as="offset" />
          </mxGeometry>
        </mxCell>
        <mxCell id="5euNQ92FFmXa8CsyGcmS-37" value="是" style="edgeStyle=orthogonalEdgeStyle;rounded=0;orthogonalLoop=1;jettySize=auto;html=1;fontSize=12;entryX=1;entryY=0.5;entryDx=0;entryDy=0;" parent="1" source="5euNQ92FFmXa8CsyGcmS-19" target="5euNQ92FFmXa8CsyGcmS-12" edge="1">
          <mxGeometry x="0.0608" relative="1" as="geometry">
            <mxPoint as="offset" />
            <mxPoint x="470" y="420" as="targetPoint" />
            <Array as="points">
              <mxPoint x="540" y="500" />
              <mxPoint x="540" y="420" />
            </Array>
          </mxGeometry>
        </mxCell>
        <mxCell id="5euNQ92FFmXa8CsyGcmS-19" value="开发镜像？" style="rhombus;whiteSpace=wrap;html=1;fontSize=12;" parent="1" vertex="1">
          <mxGeometry x="560" y="480" width="120" height="40" as="geometry" />
        </mxCell>
        <mxCell id="5euNQ92FFmXa8CsyGcmS-34" style="edgeStyle=orthogonalEdgeStyle;rounded=0;orthogonalLoop=1;jettySize=auto;html=1;entryX=0.5;entryY=0;entryDx=0;entryDy=0;fontSize=12;" parent="1" source="5euNQ92FFmXa8CsyGcmS-20" target="5euNQ92FFmXa8CsyGcmS-19" edge="1">
          <mxGeometry relative="1" as="geometry" />
        </mxCell>
        <mxCell id="5euNQ92FFmXa8CsyGcmS-20" value="&lt;p style=&quot;font-size: 12px&quot;&gt;更新OMC环境变量&lt;/p&gt;" style="rounded=0;whiteSpace=wrap;html=1;fontSize=12;" parent="1" vertex="1">
          <mxGeometry x="560" y="400" width="120" height="40" as="geometry" />
        </mxCell>
        <mxCell id="5euNQ92FFmXa8CsyGcmS-33" style="edgeStyle=orthogonalEdgeStyle;rounded=0;orthogonalLoop=1;jettySize=auto;html=1;exitX=0.5;exitY=1;exitDx=0;exitDy=0;fontSize=12;" parent="1" source="5euNQ92FFmXa8CsyGcmS-23" target="5euNQ92FFmXa8CsyGcmS-20" edge="1">
          <mxGeometry relative="1" as="geometry" />
        </mxCell>
        <mxCell id="5euNQ92FFmXa8CsyGcmS-23" value="&lt;p style=&quot;font-size: 12px;&quot;&gt;重启系统&lt;/p&gt;" style="rounded=0;whiteSpace=wrap;html=1;fontSize=12;" parent="1" vertex="1">
          <mxGeometry x="560" y="320" width="120" height="40" as="geometry" />
        </mxCell>
        <mxCell id="5euNQ92FFmXa8CsyGcmS-48" style="edgeStyle=orthogonalEdgeStyle;rounded=0;orthogonalLoop=1;jettySize=auto;html=1;exitX=0.5;exitY=1;exitDx=0;exitDy=0;fontSize=12;" parent="1" source="5euNQ92FFmXa8CsyGcmS-44" target="5euNQ92FFmXa8CsyGcmS-47" edge="1">
          <mxGeometry relative="1" as="geometry" />
        </mxCell>
        <mxCell id="5euNQ92FFmXa8CsyGcmS-44" value="&lt;p style=&quot;font-size: 12px;&quot;&gt;构建镜像&lt;/p&gt;" style="rounded=0;whiteSpace=wrap;html=1;fontSize=12;" parent="1" vertex="1">
          <mxGeometry x="160" y="640" width="120" height="40" as="geometry" />
        </mxCell>
        <mxCell id="5euNQ92FFmXa8CsyGcmS-47" value="&lt;p style=&quot;font-size: 12px;&quot;&gt;结束&lt;/p&gt;" style="rounded=0;whiteSpace=wrap;html=1;fontSize=12;" parent="1" vertex="1">
          <mxGeometry x="160" y="720" width="120" height="40" as="geometry" />
        </mxCell>
        <mxCell id="acZssroOzcoyhFP3LRE6-32" style="edgeStyle=orthogonalEdgeStyle;rounded=0;orthogonalLoop=1;jettySize=auto;html=1;fontSize=12;" edge="1" parent="1" source="acZssroOzcoyhFP3LRE6-1" target="5euNQ92FFmXa8CsyGcmS-19">
          <mxGeometry relative="1" as="geometry">
            <Array as="points">
              <mxPoint x="780" y="500" />
            </Array>
          </mxGeometry>
        </mxCell>
        <mxCell id="acZssroOzcoyhFP3LRE6-1" value="&lt;p style=&quot;font-size: 12px&quot;&gt;更新XAVIER环境变量&lt;/p&gt;" style="rounded=0;whiteSpace=wrap;html=1;fontSize=12;" vertex="1" parent="1">
          <mxGeometry x="720" y="400" width="120" height="40" as="geometry" />
        </mxCell>
        <mxCell id="acZssroOzcoyhFP3LRE6-3" value="基于基础镜像(XAVIER Disk 1)" style="rounded=0;whiteSpace=wrap;html=1;fontSize=12;" vertex="1" parent="1">
          <mxGeometry x="720" y="158.7" width="120" height="40" as="geometry" />
        </mxCell>
        <mxCell id="acZssroOzcoyhFP3LRE6-28" style="edgeStyle=orthogonalEdgeStyle;rounded=0;orthogonalLoop=1;jettySize=auto;html=1;entryX=0.5;entryY=0;entryDx=0;entryDy=0;fontSize=12;exitX=0.5;exitY=1;exitDx=0;exitDy=0;" edge="1" parent="1" source="acZssroOzcoyhFP3LRE6-9" target="5euNQ92FFmXa8CsyGcmS-44">
          <mxGeometry relative="1" as="geometry">
            <Array as="points">
              <mxPoint x="300" y="600" />
              <mxPoint x="220" y="600" />
            </Array>
          </mxGeometry>
        </mxCell>
        <mxCell id="acZssroOzcoyhFP3LRE6-10" style="edgeStyle=orthogonalEdgeStyle;rounded=0;orthogonalLoop=1;jettySize=auto;html=1;exitX=0.5;exitY=1;exitDx=0;exitDy=0;fontSize=12;" edge="1" parent="1" source="acZssroOzcoyhFP3LRE6-11" target="acZssroOzcoyhFP3LRE6-9">
          <mxGeometry relative="1" as="geometry" />
        </mxCell>
        <mxCell id="acZssroOzcoyhFP3LRE6-11" value="基于最新开发镜像(XAVIER Disk 3)" style="rounded=0;whiteSpace=wrap;html=1;fontSize=12;" vertex="1" parent="1">
          <mxGeometry x="240" y="320" width="120" height="40" as="geometry" />
        </mxCell>
        <mxCell id="acZssroOzcoyhFP3LRE6-12" style="edgeStyle=orthogonalEdgeStyle;rounded=0;orthogonalLoop=1;jettySize=auto;html=1;fontSize=12;" edge="1" parent="1" source="5euNQ92FFmXa8CsyGcmS-15" target="acZssroOzcoyhFP3LRE6-11">
          <mxGeometry relative="1" as="geometry">
            <mxPoint x="-80" y="325" as="sourcePoint" />
            <Array as="points">
              <mxPoint x="300" y="260" />
            </Array>
          </mxGeometry>
        </mxCell>
        <mxCell id="acZssroOzcoyhFP3LRE6-13" value="是" style="edgeLabel;html=1;align=center;verticalAlign=middle;resizable=0;points=[];fontSize=12;" vertex="1" connectable="0" parent="acZssroOzcoyhFP3LRE6-12">
          <mxGeometry x="0.6694" y="-3" relative="1" as="geometry">
            <mxPoint x="3" y="-14.34" as="offset" />
          </mxGeometry>
        </mxCell>
        <mxCell id="acZssroOzcoyhFP3LRE6-22" style="edgeStyle=orthogonalEdgeStyle;rounded=0;orthogonalLoop=1;jettySize=auto;html=1;fontSize=12;" edge="1" parent="1" source="acZssroOzcoyhFP3LRE6-23" target="acZssroOzcoyhFP3LRE6-25">
          <mxGeometry relative="1" as="geometry">
            <mxPoint x="-5" y="539.9999999999999" as="targetPoint" />
          </mxGeometry>
        </mxCell>
        <mxCell id="acZssroOzcoyhFP3LRE6-23" value="基于最新镜像(XAVIER Disk 2)" style="rounded=0;whiteSpace=wrap;html=1;fontSize=12;" vertex="1" parent="1">
          <mxGeometry x="-80" y="320" width="120" height="40" as="geometry" />
        </mxCell>
        <mxCell id="acZssroOzcoyhFP3LRE6-24" value="否" style="edgeStyle=orthogonalEdgeStyle;rounded=0;orthogonalLoop=1;jettySize=auto;html=1;fontSize=12;exitX=0;exitY=0.5;exitDx=0;exitDy=0;" edge="1" parent="1" target="acZssroOzcoyhFP3LRE6-23" source="5euNQ92FFmXa8CsyGcmS-15">
          <mxGeometry x="0.7895" relative="1" as="geometry">
            <mxPoint as="offset" />
            <mxPoint x="-25" y="287.43" as="sourcePoint" />
            <Array as="points">
              <mxPoint x="-20" y="260" />
            </Array>
          </mxGeometry>
        </mxCell>
        <mxCell id="acZssroOzcoyhFP3LRE6-35" style="edgeStyle=orthogonalEdgeStyle;rounded=0;orthogonalLoop=1;jettySize=auto;html=1;exitX=0.5;exitY=1;exitDx=0;exitDy=0;entryX=0.5;entryY=0;entryDx=0;entryDy=0;fontSize=12;" edge="1" parent="1" source="acZssroOzcoyhFP3LRE6-25" target="5euNQ92FFmXa8CsyGcmS-44">
          <mxGeometry relative="1" as="geometry">
            <Array as="points">
              <mxPoint x="-40" y="600" />
              <mxPoint x="230" y="600" />
            </Array>
          </mxGeometry>
        </mxCell>
        <mxCell id="acZssroOzcoyhFP3LRE6-36" value="同步" style="edgeStyle=orthogonalEdgeStyle;rounded=0;orthogonalLoop=1;jettySize=auto;html=1;entryX=1;entryY=0.5;entryDx=0;entryDy=0;fontSize=12;" edge="1" parent="1" source="5euNQ92FFmXa8CsyGcmS-12" target="acZssroOzcoyhFP3LRE6-9">
          <mxGeometry relative="1" as="geometry" />
        </mxCell>
        <mxCell id="5euNQ92FFmXa8CsyGcmS-12" value="&lt;p style=&quot;font-size: 12px&quot;&gt;更新开发 Docker + Map + QCraft&lt;/p&gt;" style="rounded=0;whiteSpace=wrap;html=1;fontSize=12;verticalAlign=middle;horizontal=1;" parent="1" vertex="1">
          <mxGeometry x="400" y="400" width="120" height="40" as="geometry" />
        </mxCell>
        <mxCell id="acZssroOzcoyhFP3LRE6-26" style="edgeStyle=orthogonalEdgeStyle;rounded=0;orthogonalLoop=1;jettySize=auto;html=1;entryX=1;entryY=0.5;entryDx=0;entryDy=0;fontSize=12;verticalAlign=middle;horizontal=1;" edge="1" parent="1" target="acZssroOzcoyhFP3LRE6-25">
          <mxGeometry relative="1" as="geometry">
            <mxPoint x="100" y="420" as="sourcePoint" />
          </mxGeometry>
        </mxCell>
        <mxCell id="acZssroOzcoyhFP3LRE6-27" value="同步" style="edgeLabel;html=1;align=center;verticalAlign=middle;resizable=0;points=[];fontSize=12;horizontal=1;" vertex="1" connectable="0" parent="acZssroOzcoyhFP3LRE6-26">
          <mxGeometry x="0.1818" y="1" relative="1" as="geometry">
            <mxPoint as="offset" />
          </mxGeometry>
        </mxCell>
        <mxCell id="acZssroOzcoyhFP3LRE6-37" value="" style="edgeStyle=orthogonalEdgeStyle;rounded=0;orthogonalLoop=1;jettySize=auto;html=1;fontSize=12;" edge="1" parent="1" source="5euNQ92FFmXa8CsyGcmS-16" target="acZssroOzcoyhFP3LRE6-25">
          <mxGeometry relative="1" as="geometry" />
        </mxCell>
        <mxCell id="5euNQ92FFmXa8CsyGcmS-16" value="&lt;p style=&quot;font-size: 12px&quot;&gt;更新发布&amp;nbsp;&lt;span&gt;Docker + Map&amp;nbsp;&lt;/span&gt;&lt;/p&gt;" style="rounded=0;whiteSpace=wrap;html=1;fontSize=12;verticalAlign=middle;horizontal=1;" parent="1" vertex="1">
          <mxGeometry x="80" y="400" width="120" height="40" as="geometry" />
        </mxCell>
        <mxCell id="acZssroOzcoyhFP3LRE6-9" value="&lt;p style=&quot;font-size: 12px&quot;&gt;更新开发 Docker + QPad Docker&lt;br&gt;&lt;/p&gt;" style="rounded=0;whiteSpace=wrap;html=1;fontSize=12;verticalAlign=middle;horizontal=1;" vertex="1" parent="1">
          <mxGeometry x="240" y="400" width="120" height="40" as="geometry" />
        </mxCell>
        <mxCell id="acZssroOzcoyhFP3LRE6-25" value="&lt;p style=&quot;font-size: 12px&quot;&gt;更新发布 Docker + QPad Docker&lt;/p&gt;" style="rounded=0;whiteSpace=wrap;html=1;fontSize=12;verticalAlign=middle;horizontal=1;" vertex="1" parent="1">
          <mxGeometry x="-80" y="400" width="120" height="40" as="geometry" />
        </mxCell>
        <mxCell id="acZssroOzcoyhFP3LRE6-39" style="edgeStyle=orthogonalEdgeStyle;rounded=0;orthogonalLoop=1;jettySize=auto;html=1;exitX=0.5;exitY=1;exitDx=0;exitDy=0;fontSize=12;" edge="1" parent="1" source="acZssroOzcoyhFP3LRE6-38" target="acZssroOzcoyhFP3LRE6-1">
          <mxGeometry relative="1" as="geometry" />
        </mxCell>
        <mxCell id="acZssroOzcoyhFP3LRE6-38" value="&lt;p style=&quot;font-size: 12px&quot;&gt;更新基础软件&lt;/p&gt;" style="rounded=0;whiteSpace=wrap;html=1;fontSize=12;" vertex="1" parent="1">
          <mxGeometry x="720" y="240" width="120" height="40" as="geometry" />
        </mxCell>
      </root>
    </mxGraphModel>
  </diagram>
  <diagram name="XAVIER" id="5B5uqOnhQudb7aUOt1No">
    <mxGraphModel dx="1995" dy="1073" grid="1" gridSize="10" guides="1" tooltips="1" connect="1" arrows="1" fold="1" page="1" pageScale="1" pageWidth="850" pageHeight="1100" background="#ffffff" math="0" shadow="0">
      <root>
        <mxCell id="cO6v1WhXd-qiUa6Dr0RI-0" />
        <mxCell id="cO6v1WhXd-qiUa6Dr0RI-1" parent="cO6v1WhXd-qiUa6Dr0RI-0" />
        <mxCell id="cO6v1WhXd-qiUa6Dr0RI-2" style="edgeStyle=orthogonalEdgeStyle;rounded=0;orthogonalLoop=1;jettySize=auto;html=1;entryX=0.5;entryY=0;entryDx=0;entryDy=0;" edge="1" parent="cO6v1WhXd-qiUa6Dr0RI-1" source="cO6v1WhXd-qiUa6Dr0RI-3" target="cO6v1WhXd-qiUa6Dr0RI-7">
          <mxGeometry relative="1" as="geometry" />
        </mxCell>
        <mxCell id="cO6v1WhXd-qiUa6Dr0RI-3" value="构建镜像" style="rounded=1;whiteSpace=wrap;html=1;" vertex="1" parent="cO6v1WhXd-qiUa6Dr0RI-1">
          <mxGeometry x="530" width="150" height="60" as="geometry" />
        </mxCell>
        <mxCell id="cO6v1WhXd-qiUa6Dr0RI-4" value="是" style="edgeStyle=orthogonalEdgeStyle;rounded=0;orthogonalLoop=1;jettySize=auto;html=1;exitX=0.5;exitY=1;exitDx=0;exitDy=0;" edge="1" parent="cO6v1WhXd-qiUa6Dr0RI-1" source="cO6v1WhXd-qiUa6Dr0RI-7" target="cO6v1WhXd-qiUa6Dr0RI-11">
          <mxGeometry relative="1" as="geometry" />
        </mxCell>
        <mxCell id="cO6v1WhXd-qiUa6Dr0RI-5" style="edgeStyle=orthogonalEdgeStyle;rounded=0;orthogonalLoop=1;jettySize=auto;html=1;exitX=0;exitY=0.5;exitDx=0;exitDy=0;" edge="1" parent="cO6v1WhXd-qiUa6Dr0RI-1" source="cO6v1WhXd-qiUa6Dr0RI-7" target="cO6v1WhXd-qiUa6Dr0RI-19">
          <mxGeometry relative="1" as="geometry" />
        </mxCell>
        <mxCell id="cO6v1WhXd-qiUa6Dr0RI-6" value="否" style="edgeLabel;html=1;align=center;verticalAlign=middle;resizable=0;points=[];" vertex="1" connectable="0" parent="cO6v1WhXd-qiUa6Dr0RI-5">
          <mxGeometry x="-0.4172" relative="1" as="geometry">
            <mxPoint x="-5.83" as="offset" />
          </mxGeometry>
        </mxCell>
        <mxCell id="cO6v1WhXd-qiUa6Dr0RI-7" value="硬件变化？" style="rhombus;whiteSpace=wrap;html=1;" vertex="1" parent="cO6v1WhXd-qiUa6Dr0RI-1">
          <mxGeometry x="530" y="100" width="150" height="60" as="geometry" />
        </mxCell>
        <mxCell id="cO6v1WhXd-qiUa6Dr0RI-8" style="edgeStyle=orthogonalEdgeStyle;rounded=0;orthogonalLoop=1;jettySize=auto;html=1;" edge="1" parent="cO6v1WhXd-qiUa6Dr0RI-1" source="cO6v1WhXd-qiUa6Dr0RI-9" target="cO6v1WhXd-qiUa6Dr0RI-21">
          <mxGeometry relative="1" as="geometry">
            <mxPoint x="235" y="520" as="targetPoint" />
          </mxGeometry>
        </mxCell>
        <mxCell id="cO6v1WhXd-qiUa6Dr0RI-9" value="基于最新镜像(Disk 2)" style="rounded=0;whiteSpace=wrap;html=1;" vertex="1" parent="cO6v1WhXd-qiUa6Dr0RI-1">
          <mxGeometry x="160" y="300" width="150" height="60" as="geometry" />
        </mxCell>
        <mxCell id="cO6v1WhXd-qiUa6Dr0RI-10" style="edgeStyle=orthogonalEdgeStyle;rounded=0;orthogonalLoop=1;jettySize=auto;html=1;exitX=0.5;exitY=1;exitDx=0;exitDy=0;" edge="1" parent="cO6v1WhXd-qiUa6Dr0RI-1" source="cO6v1WhXd-qiUa6Dr0RI-11" target="cO6v1WhXd-qiUa6Dr0RI-23">
          <mxGeometry relative="1" as="geometry" />
        </mxCell>
        <mxCell id="cO6v1WhXd-qiUa6Dr0RI-11" value="基于纯净镜像(Disk 1)" style="rounded=0;whiteSpace=wrap;html=1;" vertex="1" parent="cO6v1WhXd-qiUa6Dr0RI-1">
          <mxGeometry x="530" y="200" width="150" height="60" as="geometry" />
        </mxCell>
        <mxCell id="cO6v1WhXd-qiUa6Dr0RI-12" style="edgeStyle=orthogonalEdgeStyle;rounded=0;orthogonalLoop=1;jettySize=auto;html=1;exitX=0.5;exitY=1;exitDx=0;exitDy=0;" edge="1" parent="cO6v1WhXd-qiUa6Dr0RI-1" source="cO6v1WhXd-qiUa6Dr0RI-13" target="cO6v1WhXd-qiUa6Dr0RI-32">
          <mxGeometry relative="1" as="geometry" />
        </mxCell>
        <mxCell id="cO6v1WhXd-qiUa6Dr0RI-13" value="&lt;p&gt;更新 Docker + Map + QCraft&lt;/p&gt;" style="rounded=0;whiteSpace=wrap;html=1;" vertex="1" parent="cO6v1WhXd-qiUa6Dr0RI-1">
          <mxGeometry x="340" y="400" width="150" height="60" as="geometry" />
        </mxCell>
        <mxCell id="cO6v1WhXd-qiUa6Dr0RI-14" style="edgeStyle=orthogonalEdgeStyle;rounded=0;orthogonalLoop=1;jettySize=auto;html=1;exitX=0.5;exitY=1;exitDx=0;exitDy=0;" edge="1" parent="cO6v1WhXd-qiUa6Dr0RI-1" source="cO6v1WhXd-qiUa6Dr0RI-15" target="cO6v1WhXd-qiUa6Dr0RI-13">
          <mxGeometry relative="1" as="geometry" />
        </mxCell>
        <mxCell id="cO6v1WhXd-qiUa6Dr0RI-15" value="基于最新开发镜像(Disk 3)" style="rounded=0;whiteSpace=wrap;html=1;" vertex="1" parent="cO6v1WhXd-qiUa6Dr0RI-1">
          <mxGeometry x="340" y="300" width="150" height="60" as="geometry" />
        </mxCell>
        <mxCell id="cO6v1WhXd-qiUa6Dr0RI-16" style="edgeStyle=orthogonalEdgeStyle;rounded=0;orthogonalLoop=1;jettySize=auto;html=1;exitX=1;exitY=0.5;exitDx=0;exitDy=0;" edge="1" parent="cO6v1WhXd-qiUa6Dr0RI-1" source="cO6v1WhXd-qiUa6Dr0RI-19" target="cO6v1WhXd-qiUa6Dr0RI-15">
          <mxGeometry relative="1" as="geometry" />
        </mxCell>
        <mxCell id="cO6v1WhXd-qiUa6Dr0RI-17" value="是" style="edgeLabel;html=1;align=center;verticalAlign=middle;resizable=0;points=[];" vertex="1" connectable="0" parent="cO6v1WhXd-qiUa6Dr0RI-16">
          <mxGeometry x="0.6694" y="-3" relative="1" as="geometry">
            <mxPoint x="3" y="-0.8300000000000001" as="offset" />
          </mxGeometry>
        </mxCell>
        <mxCell id="cO6v1WhXd-qiUa6Dr0RI-18" value="否" style="edgeStyle=orthogonalEdgeStyle;rounded=0;orthogonalLoop=1;jettySize=auto;html=1;" edge="1" parent="cO6v1WhXd-qiUa6Dr0RI-1" source="cO6v1WhXd-qiUa6Dr0RI-19" target="cO6v1WhXd-qiUa6Dr0RI-9">
          <mxGeometry x="-0.25" relative="1" as="geometry">
            <mxPoint as="offset" />
          </mxGeometry>
        </mxCell>
        <mxCell id="cO6v1WhXd-qiUa6Dr0RI-19" value="开发镜像？" style="rhombus;whiteSpace=wrap;html=1;" vertex="1" parent="cO6v1WhXd-qiUa6Dr0RI-1">
          <mxGeometry x="160" y="200" width="150" height="60" as="geometry" />
        </mxCell>
        <mxCell id="cO6v1WhXd-qiUa6Dr0RI-20" style="edgeStyle=orthogonalEdgeStyle;rounded=0;orthogonalLoop=1;jettySize=auto;html=1;exitX=0.5;exitY=1;exitDx=0;exitDy=0;entryX=0.5;entryY=0;entryDx=0;entryDy=0;" edge="1" parent="cO6v1WhXd-qiUa6Dr0RI-1" source="cO6v1WhXd-qiUa6Dr0RI-21" target="cO6v1WhXd-qiUa6Dr0RI-32">
          <mxGeometry relative="1" as="geometry" />
        </mxCell>
        <mxCell id="cO6v1WhXd-qiUa6Dr0RI-21" value="&lt;p&gt;更新 Docker + Map&amp;nbsp;&lt;/p&gt;" style="rounded=0;whiteSpace=wrap;html=1;" vertex="1" parent="cO6v1WhXd-qiUa6Dr0RI-1">
          <mxGeometry x="160" y="400" width="150" height="60" as="geometry" />
        </mxCell>
        <mxCell id="cO6v1WhXd-qiUa6Dr0RI-22" style="edgeStyle=orthogonalEdgeStyle;rounded=0;orthogonalLoop=1;jettySize=auto;html=1;exitX=0.5;exitY=1;exitDx=0;exitDy=0;" edge="1" parent="cO6v1WhXd-qiUa6Dr0RI-1" source="cO6v1WhXd-qiUa6Dr0RI-23" target="cO6v1WhXd-qiUa6Dr0RI-30">
          <mxGeometry relative="1" as="geometry" />
        </mxCell>
        <mxCell id="cO6v1WhXd-qiUa6Dr0RI-23" value="&lt;p&gt;部署基础软件&lt;/p&gt;" style="rounded=0;whiteSpace=wrap;html=1;" vertex="1" parent="cO6v1WhXd-qiUa6Dr0RI-1">
          <mxGeometry x="530" y="300" width="150" height="60" as="geometry" />
        </mxCell>
        <mxCell id="cO6v1WhXd-qiUa6Dr0RI-24" value="否" style="edgeStyle=orthogonalEdgeStyle;rounded=0;orthogonalLoop=1;jettySize=auto;html=1;exitX=0.5;exitY=1;exitDx=0;exitDy=0;entryX=1;entryY=0.5;entryDx=0;entryDy=0;" edge="1" parent="cO6v1WhXd-qiUa6Dr0RI-1" source="cO6v1WhXd-qiUa6Dr0RI-26" target="cO6v1WhXd-qiUa6Dr0RI-21">
          <mxGeometry x="0.514" relative="1" as="geometry">
            <mxPoint x="215" y="680" as="targetPoint" />
            <Array as="points">
              <mxPoint x="605" y="700" />
              <mxPoint x="330" y="700" />
              <mxPoint x="330" y="430" />
            </Array>
            <mxPoint as="offset" />
          </mxGeometry>
        </mxCell>
        <mxCell id="cO6v1WhXd-qiUa6Dr0RI-25" value="是" style="edgeStyle=orthogonalEdgeStyle;rounded=0;orthogonalLoop=1;jettySize=auto;html=1;entryX=1;entryY=0.5;entryDx=0;entryDy=0;" edge="1" parent="cO6v1WhXd-qiUa6Dr0RI-1" source="cO6v1WhXd-qiUa6Dr0RI-26" target="cO6v1WhXd-qiUa6Dr0RI-13">
          <mxGeometry x="-0.2381" relative="1" as="geometry">
            <mxPoint as="offset" />
          </mxGeometry>
        </mxCell>
        <mxCell id="cO6v1WhXd-qiUa6Dr0RI-26" value="开发镜像？" style="rhombus;whiteSpace=wrap;html=1;" vertex="1" parent="cO6v1WhXd-qiUa6Dr0RI-1">
          <mxGeometry x="530" y="600" width="150" height="60" as="geometry" />
        </mxCell>
        <mxCell id="cO6v1WhXd-qiUa6Dr0RI-27" style="edgeStyle=orthogonalEdgeStyle;rounded=0;orthogonalLoop=1;jettySize=auto;html=1;entryX=0.5;entryY=0;entryDx=0;entryDy=0;" edge="1" parent="cO6v1WhXd-qiUa6Dr0RI-1" source="cO6v1WhXd-qiUa6Dr0RI-28" target="cO6v1WhXd-qiUa6Dr0RI-26">
          <mxGeometry relative="1" as="geometry" />
        </mxCell>
        <mxCell id="cO6v1WhXd-qiUa6Dr0RI-28" value="&lt;p&gt;部署环境变量&lt;/p&gt;" style="rounded=0;whiteSpace=wrap;html=1;" vertex="1" parent="cO6v1WhXd-qiUa6Dr0RI-1">
          <mxGeometry x="530" y="500" width="150" height="60" as="geometry" />
        </mxCell>
        <mxCell id="cO6v1WhXd-qiUa6Dr0RI-29" style="edgeStyle=orthogonalEdgeStyle;rounded=0;orthogonalLoop=1;jettySize=auto;html=1;exitX=0.5;exitY=1;exitDx=0;exitDy=0;" edge="1" parent="cO6v1WhXd-qiUa6Dr0RI-1" source="cO6v1WhXd-qiUa6Dr0RI-30" target="cO6v1WhXd-qiUa6Dr0RI-28">
          <mxGeometry relative="1" as="geometry" />
        </mxCell>
        <mxCell id="cO6v1WhXd-qiUa6Dr0RI-30" value="&lt;p&gt;重启系统&lt;/p&gt;" style="rounded=0;whiteSpace=wrap;html=1;" vertex="1" parent="cO6v1WhXd-qiUa6Dr0RI-1">
          <mxGeometry x="530" y="400" width="150" height="60" as="geometry" />
        </mxCell>
        <mxCell id="cO6v1WhXd-qiUa6Dr0RI-31" style="edgeStyle=orthogonalEdgeStyle;rounded=0;orthogonalLoop=1;jettySize=auto;html=1;exitX=0.5;exitY=1;exitDx=0;exitDy=0;" edge="1" parent="cO6v1WhXd-qiUa6Dr0RI-1" source="cO6v1WhXd-qiUa6Dr0RI-32" target="cO6v1WhXd-qiUa6Dr0RI-33">
          <mxGeometry relative="1" as="geometry" />
        </mxCell>
        <mxCell id="cO6v1WhXd-qiUa6Dr0RI-32" value="&lt;p&gt;构建镜像&lt;/p&gt;" style="rounded=0;whiteSpace=wrap;html=1;" vertex="1" parent="cO6v1WhXd-qiUa6Dr0RI-1">
          <mxGeometry x="160" y="600" width="150" height="60" as="geometry" />
        </mxCell>
        <mxCell id="cO6v1WhXd-qiUa6Dr0RI-33" value="&lt;p&gt;结束&lt;/p&gt;" style="rounded=0;whiteSpace=wrap;html=1;" vertex="1" parent="cO6v1WhXd-qiUa6Dr0RI-1">
          <mxGeometry x="160" y="730" width="150" height="60" as="geometry" />
        </mxCell>
      </root>
    </mxGraphModel>
  </diagram>
</mxfile>
